<?xml version="1.0" encoding="utf-8"?>
<!-- Generator: Adobe Illustrator 16.0.0, SVG Export Plug-In . SVG Version: 6.00 Build 0)  -->
<!DOCTYPE svg PUBLIC "-//W3C//DTD SVG 1.1//EN" "http://www.w3.org/Graphics/SVG/1.1/DTD/svg11.dtd">
<svg version="1.1" id="Layer_1" xmlns="http://www.w3.org/2000/svg" xmlns:xlink="http://www.w3.org/1999/xlink" x="0px" y="0px"
	 width="713.964px" height="500px" viewBox="0 0 713.964 500" enable-background="new 0 0 713.964 500" xml:space="preserve">
<g>
	<g>
		<g>
			<path fill="none" stroke="#000000" stroke-width="6" stroke-miterlimit="10" d="M419.245,473.405"/>
		</g>
	</g>
</g>
<g>
	<g>
		<g>
			<path fill="none" stroke="#000000" stroke-width="6" stroke-miterlimit="10" d="M396.892,465"/>
		</g>
	</g>
</g>
<g>
	<g>
		<g>
			<path fill="#FFFFFF" stroke="#000000" stroke-width="2" stroke-miterlimit="10" d="M563.392,324.5"/>
		</g>
	</g>
</g>
<path fill="none" stroke="#000000" stroke-width="5" stroke-miterlimit="10" d="M676.641,373.39
	c-4.771-3.56-0.319-8.204,0.25-12.708c0.3-2.367-1.014-5.767-1.376-8.141c-0.511-3.343-0.828-6.713-1.024-10.088
	c-0.328-5.634-1.266-11.252-3.535-16.472c-3.127-7.192-9.082-10.838-14.716-15.86c-4.3-3.833-8.807-8.778-10.133-14.473
	c-1.421-6.109,0.272-11.352-3.314-16.983c-3.104-4.873-7.961-8.306-10.909-13.298c-3.699-6.266-2.87-14.594-2.55-21.529
	c0.271-5.861,0.349-11.701-1.457-17.346c-1.437-4.492-4.857-8.409-7.871-11.925c-6.433-7.506-14.959-15.389-24.291-19.066
	c-23.277-9.171-48.242,6.722-63.248,23.469c-12.5,13.951-18.633,30.69-25.636,47.708c-3.726,9.055-7.663,18.046-12.407,26.62
	c-3.813,6.892-8.396,14.241-15.084,18.684c-1.612,1.071-3.331,1.801-5.152,2.167c1.463-37.445,41.01-60.932,49.076-96.471
	c2.372-10.455,3.051-21.438,2.264-32.112c-0.203-2.753-0.496-5.736-0.974-8.741c15.011-16.227,23.608-35.683,8.014-60.427
	l-0.076-0.113c-8.992-12.676-26.826-18.793-39.849-23.259c-1.293-0.444-2.535-0.87-3.71-1.283
	c-6.794-3.577-13.045-8.718-19.092-13.692c-6.291-5.174-12.796-10.525-20.111-14.345c-10.085-5.267-19.275-6.325-30.835-6.325
	c-2.011,0-4.057,0.029-6.15,0.058c-2.17,0.031-4.392,0.062-6.682,0.062c-12.064,0-19.142-3.216-26.635-6.622
	c-5.797-2.634-11.79-5.358-20.144-6.666c-3.23-0.607-6.209-0.902-9.104-0.902c-5.831,0-10.192,1.234-14.04,2.323
	c-3.335,0.943-6.215,1.758-9.661,1.759c-4.433,0-9.309-1.41-15.403-4.465c-4.025-1.892-7.256-4.771-10.379-7.556
	c-3.895-3.473-7.922-7.063-13.494-8.827c-1.321-0.483-2.969-0.718-5.035-0.718c-11.439,0-34.239,7.646-42.911,14.377l-1.426,0.955
	c-9.921,6.634-13.646,9.125-16.855,24.154c-5.171,17.945-2.797,42.403,1.63,57.636c5.615,17.151,7.28,24.819,7.683,28.235
	c-1.464-1.642-3.924-4.844-7.909-11.084c-8.23-13.362-19.556-25.591-31.891-34.433c-14.415-10.333-29.835-15.794-44.594-15.794
	c-4.852,0-9.7,0.585-14.386,1.735c-13.486,3.168-36.14,23.214-42.575,35.309l-0.053,0.105c-3.41,7.209-3.001,15.501-2.606,23.52
	c0.378,7.654,0.768,15.569-2.166,22.46l-0.058,0.146c-3.493,9.877-15.923,38.417-23.126,46.545l-0.124,0.146
	c-5.639,7.418-10.63,11.073-15.027,14.298c-7.725,5.665-13.842,10.14-16.975,29.75l-0.064,0.395c0,7.486-2.982,17.951-4.41,24.638
	l-1.435,0.258v0.264c0,1.751,2.164,3.678,3.103,5.717c0.631,1.371,1.346,4.222,1.022,4.956l-1.125,0.552v0.625
	c0,1.741-0.192,3.024-2.706,4.783c-2.474,1.732-4.449,3.695-4.449,7.057c0,11.099,5.383,24.543,9.856,36.406
	c1.767,4.685,3.592,9.11,4.901,13.206l0.141,0.174c10.34,25.631,29.863,38.09,59.603,38.09c11.298,0,24.321-1.747,40.989-5.507
	c49.386-12.108,90.043-17.13,120.508-14.744c16.742,1.05,31.466,8.449,45.701,15.605c5.343,2.686,10.871,5.464,16.448,7.883
	l0.167,0.064c3.019,1.063,7.645,3.207,13,5.689c13.772,6.382,32.633,15.123,44.974,15.124c2.911,0,5.413-0.487,7.437-1.446
	c0.36-0.17,1.301-0.654,2.35-1.467c3.106,13.855,4.924,27.972,5.222,42.158c-0.059,0.713-0.044,1.396,0.038,2.051
	c0.002,0.176,0.009,0.353,0.01,0.529c0.007,0.833,0.301,1.476,0.741,1.951c0.653,1.274,1.692,2.372,3.224,3.22
	c1.949,1.08,1.436,0.354,2.62,1.601c0.996,1.047,2.139,1.663,3.486,2.149c6.273,2.262,14.795-2.238,20.311-4.731
	c18.2-8.225,35.37-18.715,53.476-27.151c13.264-6.18,27.098-6.97,41.513-6.468c14.819,0.516,29.553,2.74,44.093,5.542
	c22.662,4.369,45.475,13.138,68.876,11.48c21.382-1.514,36.617-15.172,43.062-35.29c3.944-12.31,9.515-24.328,10.322-37.399
	C682.06,377.733,679.71,375.68,676.641,373.39z"/>
<g>
	<path fill="none" stroke="#000000" stroke-width="5" stroke-miterlimit="10" d="M676.641,373.391
		c-4.771-3.561-0.319-8.204,0.25-12.709c0.3-2.367-1.014-5.767-1.376-8.141c-0.511-3.344-0.828-6.713-1.024-10.088
		c-0.328-5.635-1.266-11.252-3.535-16.473c-3.127-7.192-9.082-10.838-14.716-15.859c-4.3-3.833-8.807-8.779-10.133-14.474
		c-1.421-6.109,0.272-11.352-3.314-16.983c-3.104-4.873-7.961-8.306-10.909-13.298c-3.699-6.267-2.87-14.595-2.55-21.529
		c0.271-5.861,0.349-11.701-1.457-17.347c-1.437-4.491-4.857-8.408-7.871-11.924c-6.433-7.506-14.959-15.39-24.291-19.066
		c-23.277-9.171-48.242,6.723-63.248,23.469c-12.5,13.951-18.633,30.69-25.636,47.709c-3.726,9.055-7.663,18.046-12.407,26.62
		c-3.813,6.892-8.396,14.241-15.084,18.685c-1.612,1.07-3.331,1.801-5.152,2.166c1.463-37.445,41.01-60.932,49.076-96.471
		c2.372-10.455,3.051-21.438,2.264-32.112c-0.594-8.062-1.926-18.083-6.56-24.925c-3.245-4.792-10.084-10.082-15.73-11.365
		c-2.575-0.585-5.271-0.426-7.887-0.595c-4.095-0.263-3.013-5.118-2.654-8.043c0.234-1.915-2.095-3.447-3.798-2.893
		c-6.769,2.202-14.02,0.071-20.609,3.294c-5.703,2.79-9.503,7.87-14.57,11.531c-4.455,3.218-10.273,5.376-15.797,4.979
		c-4.114-0.296-8.089-2.292-12.171-2.945c-10.39-1.662-20.384,2.329-29.546,6.742c-5.035,2.426-10.104,4.127-15.701,4.614
		c-7.047,0.612-14.159-0.27-21.227,0.337c-13.361,1.147-23.286,8.826-33.027,17.341c-4.859,4.247-10.027,9.471-16.186,11.731
		c-5.078,1.865-10.133,3.752-15.036,6.046c-10.726,5.018-18.128,12.284-22.361,23.386c-3.624,9.504-2.657,19.613,1.436,28.748
		c6.974,15.567,22.337,26.393,34.868,37.195c16.237,13.999,29.761,31.802,41.261,49.779c23.517,36.758,38.881,79.981,39.803,123.842
		c-0.059,0.713-0.044,1.396,0.038,2.051c0.002,0.177,0.009,0.354,0.01,0.529c0.007,0.834,0.301,1.477,0.741,1.951
		c0.653,1.273,1.692,2.371,3.224,3.219c1.949,1.08,1.436,0.354,2.62,1.602c0.996,1.047,2.139,1.663,3.486,2.149
		c6.273,2.262,14.795-2.237,20.311-4.731c18.2-8.225,35.37-18.715,53.476-27.15c13.264-6.181,27.098-6.971,41.513-6.469
		c14.819,0.517,29.553,2.74,44.093,5.543c22.662,4.369,45.475,13.138,68.876,11.48c21.382-1.514,36.617-15.172,43.062-35.29
		c3.944-12.31,9.515-24.327,10.322-37.399C682.06,377.732,679.71,375.68,676.641,373.391z"/>
	<g>
		<g>
			<path d="M419.28,410.073c0,0,0.004-0.602,0.012-1.729c0.005-0.563,0.01-1.259,0.016-2.076c-0.013-0.811-0.026-1.741-0.042-2.783
				c-0.003-1.036-0.018-2.18-0.098-3.436c-0.072-1.252-0.1-2.602-0.25-4.043c-0.137-1.439-0.229-2.969-0.452-4.575
				c-0.194-1.606-0.326-3.295-0.592-5.05c-0.119-0.876-0.24-1.771-0.363-2.683c-0.15-0.909-0.304-1.834-0.46-2.775
				c-0.28-1.884-0.654-3.821-1.004-5.813c-0.783-3.974-1.707-8.139-2.763-12.424c-0.505-2.146-1.12-4.307-1.717-6.496
				c-0.298-1.096-0.647-2.184-0.972-3.285c-0.312-1.104-0.616-2.216-0.969-3.319c-1.313-4.442-2.878-8.884-4.493-13.302
				c-1.603-4.424-3.312-8.811-5.156-13.061c-1.886-4.228-3.663-8.434-5.668-12.365c-1.969-3.949-3.93-7.742-5.914-11.272
				c-1.006-1.757-1.99-3.465-2.981-5.093c-0.488-0.819-0.968-1.625-1.439-2.417c-0.494-0.776-0.979-1.539-1.453-2.286
				c-0.924-1.516-1.927-2.879-2.802-4.243c-0.862-1.376-1.787-2.595-2.604-3.792c-0.812-1.201-1.667-2.243-2.413-3.254
				c-0.743-1.012-1.479-1.896-2.143-2.697c-0.659-0.811-1.247-1.533-1.759-2.162c-0.526-0.619-0.974-1.146-1.336-1.574
				c-0.729-0.857-1.118-1.315-1.118-1.315l0.27-0.296c0,0,0.436,0.412,1.251,1.184c0.82,0.77,2.027,1.893,3.468,3.418
				c0.732,0.75,1.546,1.578,2.376,2.531c0.832,0.951,1.785,1.936,2.7,3.073c1.885,2.231,3.948,4.804,6.057,7.714
				c0.527,0.729,1.065,1.471,1.614,2.229c0.526,0.772,1.062,1.56,1.607,2.36c1.108,1.589,2.164,3.292,3.272,5.028
				c2.172,3.498,4.365,7.249,6.454,11.227c2.131,3.956,4.128,8.15,6.073,12.447c1.927,4.307,3.717,8.754,5.398,13.242
				c1.605,4.515,3.141,9.058,4.43,13.596c1.306,4.533,2.471,9.029,3.405,13.424c0.98,4.385,1.709,8.67,2.323,12.741
				c0.26,2.043,0.569,4.022,0.741,5.953c0.1,0.964,0.197,1.911,0.293,2.841c0.069,0.933,0.137,1.848,0.202,2.744
				c0.269,3.584,0.346,6.881,0.339,9.802c0.029,1.46-0.056,2.826-0.088,4.09c-0.025,1.263-0.107,2.423-0.191,3.47
				c-0.126,2.1-0.326,3.73-0.464,4.844c-0.131,1.113-0.201,1.707-0.201,1.707L419.28,410.073z"/>
		</g>
	</g>
	<g>
		<g>
			<path d="M429.279,409.078c0,0,0.002-0.727,0.006-2.089c0.017-1.36-0.027-3.362,0.077-5.901c0.086-2.538,0.189-5.621,0.31-9.157
				c0.117-3.536,0.264-7.522,0.528-11.858c0.229-4.34,0.476-9.037,0.809-13.994c0.3-4.955,0.615-10.182,0.941-15.587
				c0.369-5.397,0.562-10.981,0.915-16.64c0.301-5.66,0.531-11.408,0.673-17.154c0.189-5.74,0.335-11.484,0.284-17.127
				c-0.022-2.82-0.044-5.619-0.065-8.385c-0.088-2.758-0.1-5.494-0.256-8.169c-0.227-5.363-0.594-10.527-1.021-15.425
				c-0.549-4.873-1.049-9.498-1.779-13.719c-0.178-1.058-0.353-2.093-0.523-3.104c-0.206-1.003-0.414-1.981-0.586-2.945
				c-0.328-1.934-0.768-3.733-1.161-5.435c-0.361-1.715-0.831-3.276-1.237-4.734c-0.206-0.73-0.403-1.43-0.592-2.099
				c-0.221-0.657-0.432-1.284-0.632-1.88c-0.398-1.195-0.754-2.264-1.062-3.193c-0.344-0.918-0.637-1.699-0.874-2.333
				c-0.477-1.273-0.731-1.952-0.731-1.952l0.355-0.184c0,0,0.314,0.654,0.905,1.879c0.295,0.613,0.659,1.369,1.087,2.257
				c0.416,0.894,0.821,1.953,1.316,3.122c0.243,0.586,0.499,1.204,0.768,1.852c0.235,0.66,0.482,1.352,0.74,2.071
				c0.511,1.442,1.094,2.991,1.577,4.692c0.515,1.69,1.085,3.484,1.55,5.412c0.249,0.959,0.504,1.943,0.765,2.951
				c0.225,1.016,0.454,2.056,0.688,3.117c0.96,4.243,1.708,8.898,2.422,13.828c0.611,4.943,1.207,10.167,1.531,15.592
				c0.22,2.709,0.296,5.471,0.449,8.264c0.07,2.794,0.199,5.622,0.209,8.475c0.103,5.704,0.009,11.499-0.13,17.291
				c-0.376,11.583-1.15,23.146-2.075,33.965c-0.912,10.82-1.956,20.9-2.856,29.537c-0.896,8.637-1.644,15.834-2.166,20.873
				c-0.483,5.042-0.759,7.923-0.759,7.923L429.279,409.078z"/>
		</g>
	</g>
	<g>
		<g>
			<path d="M442.642,422.404c0,0,0.365-0.479,1.049-1.375c0.689-0.892,1.644-2.241,3.091-3.804c0.698-0.804,1.482-1.687,2.375-2.595
				c0.889-0.916,1.821-1.948,2.897-2.959c2.104-2.081,4.553-4.371,7.41-6.633c2.807-2.336,5.994-4.677,9.458-7.02
				c3.479-2.312,7.192-4.709,11.208-6.869c3.99-2.205,8.165-4.404,12.546-6.336c4.359-1.98,8.879-3.78,13.429-5.497
				c4.595-1.595,9.227-3.079,13.838-4.364c4.61-1.29,9.219-2.3,13.698-3.148c2.233-0.449,4.449-0.808,6.62-1.123
				c2.179-0.281,4.307-0.56,6.387-0.766c4.158-0.434,8.107-0.654,11.756-0.672c3.644-0.092,6.989,0.097,9.937,0.336
				c1.474,0.082,2.851,0.285,4.12,0.408c1.271,0.12,2.432,0.301,3.478,0.46c2.099,0.262,3.719,0.687,4.823,0.921
				c1.103,0.246,1.691,0.376,1.691,0.376l-0.055,0.396c0,0-0.593-0.065-1.705-0.188c-1.111-0.127-2.741-0.32-4.828-0.432
				c-1.042-0.073-2.195-0.158-3.454-0.174c-1.259-0.02-2.619-0.11-4.074-0.072c-2.909,0.007-6.193,0.096-9.765,0.369
				c-0.893,0.068-1.805,0.139-2.733,0.209c-0.926,0.098-1.87,0.198-2.83,0.3c-1.923,0.182-3.897,0.478-5.931,0.753
				c-4.06,0.604-8.324,1.355-12.695,2.332c-4.38,0.93-8.855,2.115-13.375,3.406c-4.515,1.312-9.049,2.818-13.543,4.432
				c-4.481,1.648-8.942,3.359-13.243,5.26c-4.306,1.885-8.496,3.854-12.461,5.936c-3.986,2.039-7.735,4.208-11.248,6.329
				c-1.731,1.101-3.447,2.124-5.037,3.222c-0.802,0.537-1.591,1.064-2.364,1.582c-0.759,0.541-1.503,1.072-2.232,1.592
				c-2.919,2.075-5.495,4.115-7.729,5.979c-1.139,0.906-2.13,1.841-3.078,2.67c-0.953,0.822-1.788,1.621-2.533,2.351
				c-1.522,1.425-2.651,2.622-3.42,3.439c-0.773,0.812-1.186,1.245-1.186,1.245L442.642,422.404z"/>
		</g>
	</g>
	<g>
		<g>
			<path d="M436.984,414.098c0,0,0.464-0.559,1.334-1.607c0.882-1.037,2.122-2.609,3.788-4.52c1.647-1.928,3.647-4.27,5.942-6.957
				c2.284-2.697,4.859-5.742,7.759-8.982c2.869-3.268,5.996-6.796,9.383-10.455c3.375-3.672,6.931-7.554,10.747-11.441
				c3.8-3.899,7.711-7.961,11.859-11.912c4.136-3.965,8.383-7.953,12.714-11.859c4.396-3.835,8.823-7.638,13.315-11.236
				c4.452-3.645,9.044-6.98,13.528-10.15c4.45-3.216,9.002-5.99,13.312-8.598c4.36-2.543,8.567-4.803,12.578-6.641
				c0.998-0.466,1.976-0.922,2.931-1.367c0.973-0.411,1.919-0.818,2.854-1.186c1.85-0.779,3.659-1.395,5.346-1.99
				c1.673-0.627,3.289-1.085,4.767-1.534c0.739-0.222,1.448-0.435,2.126-0.638c0.688-0.171,1.344-0.333,1.967-0.487
				c1.244-0.304,2.345-0.6,3.327-0.767c0.98-0.162,1.814-0.301,2.491-0.412c1.347-0.223,2.064-0.342,2.064-0.342l0.088,0.391
				c0,0-0.699,0.182-2.009,0.521c-0.655,0.17-1.464,0.38-2.413,0.626c-0.946,0.258-2.013,0.631-3.219,1.007
				c-0.602,0.192-1.236,0.396-1.9,0.608c-0.654,0.245-1.338,0.502-2.051,0.77c-1.425,0.539-2.977,1.093-4.581,1.82
				c-1.617,0.696-3.347,1.416-5.113,2.305c-0.89,0.428-1.802,0.867-2.736,1.318c-0.917,0.483-1.855,0.979-2.814,1.483
				c-3.846,2.001-7.869,4.431-12.081,7.063c-4.157,2.719-8.517,5.631-12.856,8.881c-2.204,1.578-4.357,3.301-6.581,4.984
				c-2.174,1.749-4.411,3.473-6.59,5.305c-4.411,3.6-8.767,7.409-13.091,11.25c-17.309,15.366-33.499,31.945-45.63,44.365
				c-6.068,6.213-11.125,11.391-14.665,15.016c-3.568,3.596-5.607,5.65-5.607,5.65L436.984,414.098z"/>
		</g>
	</g>
</g>
</svg>
